<svg width="12" height="12" viewBox="0 0 12 12" fill="none" xmlns="http://www.w3.org/2000/svg">
<path d="M11.4521 8.70567C10.9544 8.19438 9.53986 7.23655 8.61271 7.23655C8.39797 7.23655 8.21049 7.28427 8.0571 7.38312C7.60375 7.67285 7.24244 7.89782 7.06859 7.89782C6.97315 7.89782 6.87089 7.81261 6.64592 7.61832L6.60843 7.58423C5.98465 7.04225 5.85171 6.9025 5.6097 6.65026L5.54834 6.5855C5.50403 6.54118 5.46653 6.50028 5.42904 6.46279C5.2177 6.24463 5.06431 6.08783 4.52234 5.47428L4.49848 5.44701C4.23942 5.15387 4.06899 4.96298 4.05876 4.82323C4.04854 4.68688 4.16784 4.46532 4.47121 4.05288C4.83934 3.55521 4.85298 2.94166 4.51552 2.22925C4.24624 1.66683 3.80652 1.12826 3.41794 0.654459L3.38385 0.613556C3.04981 0.204519 2.66122 0 2.22832 0C1.7477 0 1.34889 0.259057 1.13756 0.395402C1.12051 0.405628 1.10347 0.419263 1.08643 0.429489C0.612627 0.729449 0.268354 1.1419 0.138825 1.56116C-0.0554672 2.19176 -0.184996 3.00983 0.745564 4.71074C1.55 6.18328 2.27945 7.17178 3.43839 8.3614C4.52916 9.47943 5.01318 9.84075 6.09713 10.6247C7.30379 11.4973 8.46273 11.9984 9.27399 11.9984C10.0273 11.9984 10.6204 11.9984 11.4657 10.9792C12.352 9.90892 11.9839 9.25446 11.4521 8.70567Z" fill="white"/>
</svg>
