<svg width="22" height="23" viewBox="0 0 22 23" fill="none" xmlns="http://www.w3.org/2000/svg">
<path d="M11 23C17.0751 23 22 18.0751 22 12C22 5.92487 17.0751 1 11 1C4.92487 1 0 5.92487 0 12C0 18.0751 4.92487 23 11 23Z" fill="#50B748"/>
<path d="M13.3146 22.7407C13.5255 22.6998 13.7352 22.6527 13.9434 22.5995C14.2964 22.5008 14.6443 22.3846 14.9857 22.2512C15.3275 22.1189 15.6625 21.9696 15.9894 21.8038C16.3164 21.6375 16.6349 21.4548 16.9437 21.2566C17.252 21.0583 17.5503 20.8448 17.8374 20.6168C18.125 20.3884 18.4009 20.1458 18.6642 19.8898C18.9271 19.6345 19.1771 19.3662 19.4132 19.0859C19.6494 18.8054 19.8716 18.5132 20.0787 18.2105C20.2857 17.9083 20.4775 17.5959 20.6534 17.2746C20.8293 16.9528 20.989 16.6224 21.1319 16.2846C21.2749 15.9467 21.401 15.6019 21.5096 15.2515C21.6026 14.9447 21.6821 14.6339 21.7479 14.3202L15.2121 7.78526C14.6601 7.23086 14.004 6.79109 13.2814 6.49124C12.5589 6.19139 11.7841 6.03739 11.0018 6.03809C10.2188 6.03723 9.44335 6.19115 8.72002 6.49099C7.99669 6.79083 7.33976 7.23068 6.78699 7.78526C6.23283 8.3382 5.79317 8.99501 5.4932 9.7181C5.19322 10.4412 5.03881 11.2163 5.03881 11.9992C5.03881 12.782 5.19322 13.5572 5.4932 14.2802C5.79317 15.0033 6.23283 15.6601 6.78699 16.2131L13.3146 22.7407Z" fill="#10A711"/>
<path d="M11.0009 6.03894C12.5244 6.03894 14.0479 6.62103 15.2139 7.78611C15.7681 8.33905 16.2077 8.99587 16.5077 9.71895C16.8077 10.442 16.9621 11.2172 16.9621 12C16.9621 12.7829 16.8077 13.558 16.5077 14.2811C16.2077 15.0042 15.7681 15.661 15.2139 16.2139C14.661 16.7681 14.0042 17.2078 13.2811 17.5077C12.558 17.8077 11.7828 17.9621 11 17.9621C10.2172 17.9621 9.44201 17.8077 8.71892 17.5077C7.99584 17.2078 7.33902 16.7681 6.78608 16.2139C6.23192 15.661 5.79227 15.0042 5.49229 14.2811C5.19231 13.558 5.0379 12.7829 5.0379 12C5.0379 11.2172 5.19231 10.442 5.49229 9.71895C5.79227 8.99587 6.23192 8.33905 6.78608 7.78611C7.33885 7.23154 7.99578 6.79169 8.71911 6.49185C9.44244 6.19201 10.2179 6.03809 11.0009 6.03894ZM13.7142 10.1658C13.6275 10.1741 13.5448 10.2068 13.4759 10.2602L10.1264 12.7719L8.5745 11.2209C8.23808 10.8707 7.57533 11.5325 7.92641 11.8689L9.75975 13.7023C9.83922 13.7774 9.94225 13.8228 10.0514 13.8306C10.1605 13.8385 10.2689 13.8084 10.3583 13.7454L14.025 10.9954C14.333 10.7708 14.1432 10.1722 13.7619 10.1667C13.7463 10.1659 13.7307 10.1659 13.7152 10.1667L13.7142 10.1658Z" fill="white"/>
</svg>
