<svg width="14" height="15" viewBox="0 0 14 15" fill="none" xmlns="http://www.w3.org/2000/svg">
<path d="M12.9648 0.500098H1.03521C0.901112 0.498236 0.767958 0.522808 0.643356 0.572411C0.518754 0.622014 0.405143 0.695676 0.309012 0.789191C0.212881 0.882706 0.136114 0.994242 0.0830929 1.11743C0.0300721 1.24062 0.0018369 1.37304 0 1.50714V13.5776C0.0018369 13.7117 0.0300721 13.8441 0.0830929 13.9673C0.136114 14.0905 0.212881 14.202 0.309012 14.2955C0.405143 14.389 0.518754 14.4627 0.643356 14.5123C0.767958 14.5619 0.901112 14.5865 1.03521 14.5846H12.9648C13.0989 14.5865 13.232 14.5619 13.3566 14.5123C13.4812 14.4627 13.5949 14.389 13.691 14.2955C13.7871 14.202 13.8639 14.0905 13.9169 13.9673C13.9699 13.8441 13.9982 13.7117 14 13.5776V1.50714C13.9982 1.37304 13.9699 1.24062 13.9169 1.11743C13.8639 0.994242 13.7871 0.882706 13.691 0.789191C13.5949 0.695676 13.4812 0.622014 13.3566 0.572411C13.232 0.522808 13.0989 0.498236 12.9648 0.500098ZM4.24648 12.2888H2.1338V5.9508H4.24648V12.2888ZM3.19014 5.06348C2.89878 5.06348 2.61934 4.94773 2.41332 4.74171C2.20729 4.53568 2.09155 4.25625 2.09155 3.96489C2.09155 3.67352 2.20729 3.39409 2.41332 3.18807C2.61934 2.98204 2.89878 2.8663 3.19014 2.8663C3.34486 2.84875 3.50153 2.86408 3.64991 2.91128C3.79829 2.95849 3.93503 3.0365 4.05117 3.14021C4.16731 3.24392 4.26023 3.371 4.32385 3.51311C4.38748 3.65523 4.42036 3.80918 4.42036 3.96489C4.42036 4.12059 4.38748 4.27454 4.32385 4.41666C4.26023 4.55877 4.16731 4.68585 4.05117 4.78956C3.93503 4.89327 3.79829 4.97129 3.64991 5.01849C3.50153 5.06569 3.34486 5.08102 3.19014 5.06348ZM11.8662 12.2888H9.75352V8.88742C9.75352 8.03531 9.4507 7.47897 8.6831 7.47897C8.44554 7.48071 8.21422 7.55522 8.02031 7.69247C7.8264 7.82972 7.67921 8.02311 7.59859 8.24658C7.54348 8.4121 7.5196 8.58642 7.52817 8.76066V12.2818H5.41549C5.41549 12.2818 5.41549 6.52122 5.41549 5.94376H7.52817V6.83813C7.72009 6.5051 7.99923 6.23075 8.33552 6.04461C8.67181 5.85847 9.05251 5.7676 9.43662 5.78179C10.8451 5.78179 11.8662 6.69024 11.8662 8.64094V12.2888Z" fill="#84B424"/>
</svg>
