<svg width="14" height="15" viewBox="0 0 14 15" fill="none" xmlns="http://www.w3.org/2000/svg">
<path d="M13.23 0.5H0.77C0.565783 0.5 0.369931 0.581125 0.225528 0.725528C0.0811248 0.869931 0 1.06578 0 1.27V13.73C0 13.8311 0.0199167 13.9312 0.0586128 14.0247C0.0973089 14.1181 0.154027 14.203 0.225528 14.2745C0.297029 14.346 0.381913 14.4027 0.475334 14.4414C0.568754 14.4801 0.668882 14.5 0.77 14.5H7.476V9.075H5.656V6.975H7.476V5.4C7.4383 5.03023 7.48195 4.65669 7.6039 4.30558C7.72585 3.95446 7.92314 3.63428 8.18193 3.36749C8.44072 3.10069 8.75474 2.89375 9.10198 2.76117C9.44921 2.62858 9.82125 2.57358 10.192 2.6C10.7368 2.59665 11.2814 2.62469 11.823 2.684V4.574H10.71C9.828 4.574 9.66 4.994 9.66 5.603V6.954H11.76L11.487 9.054H9.66V14.5H13.23C13.3311 14.5 13.4312 14.4801 13.5247 14.4414C13.6181 14.4027 13.703 14.346 13.7745 14.2745C13.846 14.203 13.9027 14.1181 13.9414 14.0247C13.9801 13.9312 14 13.8311 14 13.73V1.27C14 1.16888 13.9801 1.06875 13.9414 0.975334C13.9027 0.881913 13.846 0.797029 13.7745 0.725528C13.703 0.654027 13.6181 0.597309 13.5247 0.558613C13.4312 0.519917 13.3311 0.5 13.23 0.5Z" fill="#84B424"/>
</svg>
