<svg width="14" height="12" viewBox="0 0 14 12" fill="none" xmlns="http://www.w3.org/2000/svg">
<path d="M14 1.86542C13.4738 2.09369 12.9174 2.24458 12.348 2.31342C12.9487 1.95454 13.3989 1.38997 13.615 0.72442C13.0505 1.06046 12.4325 1.29723 11.788 1.42442C11.3572 0.957221 10.7835 0.646228 10.1569 0.540216C9.53026 0.434205 8.88618 0.539171 8.32565 0.838653C7.76513 1.13813 7.31985 1.61519 7.05967 2.19501C6.79948 2.77482 6.7391 3.42459 6.888 4.04242C5.7466 3.98469 4.63011 3.68749 3.61106 3.17012C2.59201 2.65276 1.69319 1.92681 0.973 1.03942C0.720396 1.48054 0.587663 1.9801 0.588 2.48842C0.587104 2.96049 0.702952 3.42545 0.925229 3.84192C1.14751 4.25838 1.46931 4.61342 1.862 4.87542C1.40558 4.863 0.95892 4.74053 0.56 4.51842V4.55342C0.563421 5.21484 0.795196 5.85478 1.21612 6.365C1.63704 6.87521 2.22128 7.22437 2.87 7.35342C2.62028 7.42942 2.36101 7.46949 2.1 7.47242C1.91932 7.47031 1.7391 7.45392 1.561 7.42342C1.74574 7.99239 2.10324 8.48962 2.58375 8.84593C3.06427 9.20224 3.6439 9.39991 4.242 9.41142C3.23204 10.2061 1.98512 10.6398 0.7 10.6434C0.466015 10.6442 0.232215 10.6302 0 10.6014C1.3121 11.4486 2.84117 11.8983 4.403 11.8964C5.48078 11.9076 6.54999 11.7039 7.54818 11.2973C8.54637 10.8906 9.45352 10.2891 10.2166 9.52797C10.9798 8.7668 11.5836 7.86119 11.9928 6.86405C12.402 5.86691 12.6084 4.79823 12.6 3.72042C12.6 3.60142 12.6 3.47542 12.6 3.34942C13.1493 2.93979 13.623 2.43762 14 1.86542Z" fill="#84B424"/>
</svg>
