<svg width="14" height="11" viewBox="0 0 14 11" fill="none" xmlns="http://www.w3.org/2000/svg">
<path d="M13.9968 3.96707C14.0282 3.05678 13.8292 2.15331 13.4181 1.34054C13.1391 1.00704 12.752 0.781981 12.3242 0.704578C10.5546 0.544014 8.77777 0.478204 7.00119 0.50743C5.23108 0.476877 3.4606 0.540564 1.69727 0.698219C1.34864 0.761635 1.02602 0.925157 0.768761 1.16883C0.196395 1.69668 0.132799 2.59975 0.0692028 3.3629C-0.0230676 4.73503 -0.0230676 6.11181 0.0692028 7.48394C0.0876013 7.91347 0.151556 8.33983 0.259991 8.75586C0.336673 9.07706 0.491814 9.37424 0.711525 9.62077C0.970532 9.87735 1.30067 10.0502 1.65911 10.1168C3.03019 10.2861 4.41169 10.3562 5.79286 10.3267C8.01873 10.3585 9.97113 10.3267 12.2797 10.1486C12.6469 10.0861 12.9864 9.91302 13.2527 9.65257C13.4307 9.47445 13.5637 9.25643 13.6406 9.01661C13.8681 8.31871 13.9798 7.5883 13.9713 6.85433C13.9968 6.49819 13.9968 4.34864 13.9968 3.96707ZM5.56392 7.23591V3.2993L9.32881 5.27715C8.27312 5.86223 6.88036 6.52363 5.56392 7.23591Z" fill="#84B424"/>
</svg>
